<svg width="178" height="77" viewBox="0 0 178 77" fill="none" xmlns="http://www.w3.org/2000/svg">
<g clip-path="url(#clip0_44_443)">
<path d="M23.4157 0.559448V5.43768H15.0507V26.6625H9.44767V5.43768H1.06006V0.559448H23.427H23.4157Z" fill="white" fill-opacity="0.9"/>
<path d="M48.7025 26.338V26.6625H42.2652L35.6588 17.1522H33.4492V26.6625H27.8462V0.559448H36.6509C38.9733 0.559448 40.9237 0.917484 42.4794 1.62237C44.0352 2.33844 45.1964 3.30066 45.9517 4.52022C46.707 5.73977 47.0904 7.12716 47.0904 8.69357C47.0904 10.5173 46.6281 12.0949 45.715 13.4263C44.7905 14.7578 43.4377 15.7424 41.6564 16.3913L48.7138 26.338H48.7025ZM33.4379 12.8445H35.9632C37.6205 12.8445 38.8944 12.5313 39.7963 11.9159C40.6982 11.3005 41.1491 10.2823 41.1491 8.85021C41.1491 7.61946 40.7433 6.6908 39.9428 6.07543C39.1424 5.46006 38.0263 5.14678 36.5833 5.14678H33.4379V12.8445Z" fill="white" fill-opacity="0.9"/>
<path d="M67.4959 0.559448L76.9545 26.338V26.6625H70.8216L68.7135 20.4192H58.973L56.8986 26.6625H50.856V26.338L60.3146 0.559448H67.4959ZM60.5175 15.8319H67.169L63.7981 5.88523L60.5062 15.8319H60.5175Z" fill="white" fill-opacity="0.9"/>
<path d="M78.8599 24.089L81.4528 20.1059C83.9668 21.6947 86.4358 22.4779 88.8371 22.4779C90.3816 22.4779 91.5878 22.2317 92.4672 21.7506C93.3465 21.2695 93.7862 20.5422 93.7862 19.58C93.7862 18.987 93.6396 18.4947 93.3578 18.1143C93.076 17.7227 92.5687 17.3535 91.8584 16.9843C91.1369 16.6262 90.0659 16.1563 88.6341 15.5969L87.6984 15.2388C85.9623 14.5675 84.5756 13.9186 83.5159 13.3032C82.4562 12.6878 81.6219 11.8935 81.0019 10.9312C80.3818 9.96901 80.0661 8.73827 80.0661 7.26137C80.0661 5.62783 80.5396 4.26282 81.4866 3.17753C82.4336 2.09223 83.6512 1.28665 85.1393 0.783164C86.6274 0.268488 88.2057 0.0223389 89.8855 0.0223389C91.3962 0.0223389 92.9632 0.268488 94.5754 0.771976C96.1875 1.26427 97.7207 2.00272 99.1863 2.96494L96.5595 6.91452C95.2631 6.13132 94.1244 5.57189 93.1323 5.22504C92.1403 4.87819 91.058 4.69918 89.9081 4.69918C88.6116 4.69918 87.6421 4.91176 86.9882 5.34812C86.3343 5.78447 85.9961 6.35509 85.9961 7.08235C85.9961 7.54108 86.1314 7.94387 86.402 8.3131C86.6725 8.67113 87.1573 9.04036 87.8563 9.39839C88.5552 9.75643 89.5699 10.1816 90.8776 10.6627L91.7682 10.9872C93.4931 11.6361 94.8798 12.2403 95.9395 12.7997C96.9992 13.3592 97.9011 14.1647 98.6226 15.2165C99.3441 16.2682 99.7162 17.622 99.7162 19.2891C99.7162 21.0345 99.2539 22.5003 98.3408 23.6974C97.4163 24.8946 96.165 25.7897 94.5866 26.3715C93.0083 26.9645 91.2158 27.2554 89.2091 27.2554C85.1506 27.2554 81.7008 26.2037 78.8599 24.1114V24.089Z" fill="white" fill-opacity="0.9"/>
<path d="M110.55 21.7507H122.646V26.6625H104.947V0.559448H110.55V21.7507Z" fill="white" fill-opacity="0.9"/>
<path d="M130.583 25.4989C128.622 24.3465 127.145 22.7353 126.141 20.6878C125.138 18.6291 124.642 16.2459 124.642 13.5383C124.642 10.5285 125.251 8.01109 126.468 5.98595C127.686 3.96081 129.298 2.45035 131.316 1.47694C133.334 0.492341 135.566 0.0112305 138.035 0.0112305C140.854 0.0112305 143.232 0.593038 145.194 1.74546C147.156 2.89789 148.632 4.50905 149.613 6.55657C150.605 8.61527 151.09 10.9984 151.09 13.7061C151.09 16.7158 150.493 19.2333 149.286 21.2584C148.08 23.2835 146.468 24.794 144.461 25.7674C142.443 26.752 140.211 27.2331 137.742 27.2331C134.924 27.2331 132.545 26.6513 130.583 25.4989ZM141.823 21.4934C142.951 20.7773 143.785 19.7591 144.337 18.4277C144.89 17.0962 145.171 15.5298 145.171 13.7397C145.171 10.8977 144.563 8.67121 143.345 7.07124C142.128 5.47127 140.358 4.67688 138.024 4.67688C135.69 4.67688 133.74 5.46008 132.466 7.03768C131.192 8.60408 130.561 10.7635 130.561 13.5047C130.561 16.2459 131.17 18.5731 132.387 20.1731C133.605 21.7731 135.386 22.5675 137.742 22.5675C139.343 22.5675 140.696 22.2094 141.823 21.5045V21.4934Z" fill="white" fill-opacity="0.9"/>
<path d="M158.181 23.5856C156.141 21.1577 155.115 17.9018 155.115 13.8179C155.115 10.5173 155.678 7.83203 156.817 5.78451C157.956 3.72581 159.466 2.24891 161.338 1.35382C163.221 0.458733 165.34 0 167.685 0C169.331 0 170.853 0.190206 172.228 0.581808C173.604 0.973409 174.99 1.56641 176.366 2.37198L174.201 6.60128C172.273 5.37053 170.176 4.74397 167.922 4.74397C163.322 4.74397 161.022 7.65301 161.022 13.4823C161.022 16.3801 161.665 18.5843 162.939 20.0836C164.213 21.5828 166.028 22.3437 168.361 22.3437C169.556 22.3437 170.605 22.187 171.507 21.8849C172.409 21.5716 173.344 21.1353 174.325 20.5758L176.569 24.6038C175.103 25.4653 173.682 26.1142 172.285 26.5618C170.887 27.0093 169.41 27.2219 167.843 27.2219C163.435 27.2219 160.21 26.0023 158.159 23.5744L158.181 23.5856Z" fill="white" fill-opacity="0.9"/>
<path d="M177.454 35.0551H0.571289L0.553322 74.3609H177.436L177.454 35.0551Z" fill="#1E3348"/>
<path d="M20.6082 67.0309C18.6466 65.8784 17.1697 64.2673 16.1664 62.2198C15.163 60.1722 14.667 57.7779 14.667 55.0702C14.667 52.0605 15.2758 49.5431 16.4933 47.5179C17.7109 45.4928 19.323 43.9823 21.341 43.0089C23.359 42.0355 25.5912 41.5432 28.0601 41.5432C30.8785 41.5432 33.2573 42.125 35.2189 43.2774C37.1805 44.4299 38.6574 46.041 39.6382 48.0885C40.6303 50.1473 41.115 52.5304 41.115 55.2381C41.115 58.2478 40.5175 60.7652 39.3112 62.7904C38.105 64.8155 36.4928 66.326 34.4861 67.2994C32.4681 68.284 30.2359 68.7651 27.767 68.7651C24.9486 68.7651 22.5698 68.1833 20.6082 67.0309ZM31.8481 63.0253C32.9754 62.3093 33.8097 61.2911 34.3621 59.9597C34.9145 58.6282 35.1963 57.0618 35.1963 55.2716C35.1963 52.4297 34.5876 50.2032 33.37 48.6032C32.1525 47.0033 30.3825 46.2089 28.0488 46.2089C25.7152 46.2089 23.7648 46.9921 22.4909 48.5697C21.217 50.1361 20.5857 52.2955 20.5857 55.0367C20.5857 57.7779 21.1944 60.1051 22.412 61.7051C23.6296 63.3051 25.4108 64.0994 27.767 64.0994C29.3679 64.0994 30.7207 63.7414 31.8481 63.0365V63.0253Z" stroke="white" stroke-miterlimit="10"/>
<path d="M67.3714 67.8812V68.2057H60.9342L54.3278 58.6954H52.1182V68.2057H46.5151V42.1027H55.3199C57.6423 42.1027 59.5926 42.4607 61.1484 43.1656C62.7041 43.8817 63.8653 44.8439 64.6207 46.0634C65.376 47.283 65.7593 48.6704 65.7593 50.2368C65.7593 52.0605 65.2971 53.6381 64.3839 54.9696C63.4595 56.301 62.1066 57.2856 60.3254 57.9345L67.3827 67.8812H67.3714ZM52.1182 54.3878H54.6435C56.3007 54.3878 57.5746 54.0745 58.4765 53.4591C59.3784 52.8437 59.8293 51.8256 59.8293 50.3934C59.8293 49.1627 59.4235 48.234 58.6231 47.6186C57.8226 47.0033 56.7065 46.69 55.2635 46.69H52.1182V54.3878Z" stroke="white" stroke-miterlimit="10"/>
<path d="M69.1978 65.6211L71.7907 61.638C74.3047 63.2268 76.7737 64.01 79.175 64.01C80.7194 64.01 81.9257 63.7638 82.8051 63.2827C83.6844 62.8016 84.1241 62.0744 84.1241 61.1121C84.1241 60.5191 83.9775 60.0268 83.6957 59.6464C83.4139 59.2548 82.9065 58.8856 82.1963 58.5164C81.4861 58.1471 80.4038 57.6884 78.972 57.129L78.0363 56.771C76.3002 56.0996 74.9135 55.4507 73.8538 54.8353C72.7941 54.2199 71.9598 53.4256 71.3397 52.4633C70.7197 51.5011 70.404 50.2704 70.404 48.7935C70.404 47.1599 70.8775 45.7949 71.8245 44.7096C72.7715 43.6243 73.9891 42.8188 75.4772 42.3153C76.9653 41.8006 78.5436 41.5544 80.2234 41.5544C81.7341 41.5544 83.3011 41.8006 84.9133 42.3041C86.5254 42.7964 88.0586 43.5348 89.5242 44.497L86.8974 48.4466C85.6009 47.6634 84.4623 47.104 83.4702 46.7571C82.4781 46.4103 81.3959 46.2313 80.246 46.2313C78.9608 46.2313 77.9799 46.4439 77.3261 46.8802C76.6722 47.3054 76.334 47.8872 76.334 48.6145C76.334 49.0732 76.4693 49.476 76.7398 49.8452C77.0104 50.2032 77.4952 50.5725 78.1941 50.9305C78.8931 51.2885 79.9077 51.7137 81.2155 52.1948L82.1061 52.5193C83.831 53.1682 85.2176 53.7724 86.2774 54.3318C87.3371 54.8913 88.239 55.6968 88.9605 56.7486C89.682 57.8003 90.054 59.1541 90.054 60.8212C90.054 62.5667 89.5918 64.0324 88.6787 65.2295C87.7542 66.4267 86.5028 67.3218 84.9245 67.9036C83.3462 68.4966 81.5537 68.7875 79.547 68.7875C75.4885 68.7875 72.0387 67.7358 69.1978 65.6435V65.6211Z" stroke="white" stroke-miterlimit="10"/>
<path d="M95.4653 68.2057V42.1027H101.068V68.2057H95.4653Z" stroke="white" stroke-miterlimit="10"/>
<path d="M131.214 42.1027V68.2057H124.969L116.705 56.0437C115.995 54.9696 115.397 54.0409 114.913 53.2465C114.428 52.4521 113.954 51.557 113.492 50.5724V68.2169H107.889V42.1138H114.056L123.052 55.4842C123.165 55.6409 123.402 56.0101 123.785 56.5919C124.168 57.1737 124.507 57.7108 124.822 58.2254C125.138 58.7401 125.397 59.2324 125.623 59.7135V42.1138H131.226L131.214 42.1027Z" stroke="white" stroke-miterlimit="10"/>
<path d="M142.555 67.0309C140.594 65.8784 139.117 64.2673 138.114 62.2198C137.11 60.1611 136.614 57.7779 136.614 55.0702C136.614 52.0605 137.223 49.5431 138.441 47.5179C139.658 45.4928 141.27 43.9823 143.288 43.0089C145.306 42.0355 147.538 41.5432 150.007 41.5432C152.826 41.5432 155.205 42.125 157.166 43.2774C159.128 44.4299 160.605 46.041 161.585 48.0885C162.578 50.1473 163.062 52.5304 163.062 55.2381C163.062 58.2478 162.465 60.7652 161.258 62.7904C160.052 64.8155 158.44 66.326 156.433 67.2994C154.415 68.284 152.183 68.7651 149.714 68.7651C146.896 68.7651 144.517 68.1833 142.555 67.0309ZM153.795 63.0253C154.923 62.3093 155.757 61.2911 156.309 59.9597C156.862 58.6282 157.144 57.0618 157.144 55.2716C157.144 52.4297 156.535 50.2032 155.317 48.6032C154.1 47.0033 152.33 46.2089 149.996 46.2089C147.662 46.2089 145.712 46.9921 144.438 48.5697C143.164 50.1361 142.533 52.2955 142.533 55.0367C142.533 57.7779 143.142 60.1051 144.359 61.7051C145.577 63.3051 147.358 64.0994 149.714 64.0994C151.315 64.0994 152.668 63.7414 153.795 63.0365V63.0253Z" stroke="white" stroke-miterlimit="10"/>
</g>
<defs>
<clipPath id="clip0_44_443">
<rect width="178" height="77" fill="white"/>
</clipPath>
</defs>
</svg>
