<svg width="83" height="84" viewBox="0 0 83 84" fill="none" xmlns="http://www.w3.org/2000/svg">
<rect y="0.0983887" width="83" height="83.8032" fill="#1E3348"/>
<path d="M39.8087 62.0805C36.6955 60.1579 34.3772 57.3808 32.8538 53.9628C31.2641 50.4737 30.4692 46.4149 30.4692 41.8576C30.4692 36.7306 31.3966 32.5294 33.3174 29.1115C35.2383 25.6935 37.7553 23.13 40.9347 21.4923C44.1141 19.8545 47.6247 19 51.4664 19C55.9043 19 59.6136 19.9969 62.7267 21.9195C65.8399 23.8421 68.1582 26.6192 69.6817 30.0372C71.2713 33.5263 72 37.5851 72 42.1424C72 47.2693 71.0726 51.4706 69.1518 54.8885C67.2309 58.3065 64.7139 60.87 61.6007 62.5077C58.4213 64.1455 54.9108 65 51.069 65C46.5649 65 42.8556 64.0031 39.8087 62.0805ZM57.4278 55.3158C59.2162 54.1053 60.5409 52.3963 61.402 50.1176C62.2631 47.839 62.7267 45.2043 62.7267 42.2136C62.7267 37.3715 61.7994 33.6687 59.8785 30.9628C57.9577 28.257 55.1757 26.904 51.5327 26.904C47.8896 26.904 44.7765 28.257 42.7894 30.8916C40.8022 33.5263 39.8087 37.2291 39.8087 41.8576C39.8087 46.4861 40.736 50.4025 42.6569 53.1084C44.5778 55.8142 47.3597 57.1672 51.069 57.1672C53.5198 57.096 55.6394 56.5263 57.4278 55.3158Z" stroke="#EDEDED" stroke-miterlimit="10"/>
<path d="M50.505 19H11.5244V27.4581H25.4766V64.2069H39.5759C39.4796 64.1518 31.0936 54.6311 30.4682 43.1623" stroke="white"/>
</svg>
