<?xml version="1.0" encoding="utf-8"?>
<!-- Generator: Adobe Illustrator 28.2.0, SVG Export Plug-In . SVG Version: 6.00 Build 0)  -->
<svg version="1.1" id="Layer_1" xmlns="http://www.w3.org/2000/svg" xmlns:xlink="http://www.w3.org/1999/xlink" x="0px" y="0px"
	 viewBox="0 0 422 183" style="enable-background:new 0 0 422 183;" xml:space="preserve">
<style type="text/css">
	.st0{clip-path:url(#SVGID_00000122687177557443216300000003410853366634445468_);}
	.st1{fill:#0A2034;fill-opacity:0.9;}
	.st2{fill:#1E3348;}
	.st3{fill:none;stroke:#FFFFFF;stroke-miterlimit:10;}
	.st4{fill:#2772AF;}
	.st5{fill:#FFFFFF;}
</style>
<g>
	<defs>
		<rect id="SVGID_1_" y="0" width="422" height="183"/>
	</defs>
	<clipPath id="SVGID_00000052079929768591727780000015726102472005454247_">
		<use xlink:href="#SVGID_1_"  style="overflow:visible;"/>
	</clipPath>
	<g style="clip-path:url(#SVGID_00000052079929768591727780000015726102472005454247_);">
		<path class="st1" d="M55.5,1.3v11.6H35.7v50.4H22.4V12.9H2.5V1.3H55.5L55.5,1.3z"/>
		<path class="st1" d="M115.5,62.6v0.8h-15.3L84.5,40.8h-5.2v22.6H66v-62h20.9c5.5,0,10.1,0.9,13.8,2.5c3.7,1.7,6.4,4,8.2,6.9
			c1.8,2.9,2.7,6.2,2.7,9.9c0,4.3-1.1,8.1-3.3,11.2c-2.2,3.2-5.4,5.5-9.6,7L115.5,62.6L115.5,62.6z M79.3,30.5h6
			c3.9,0,6.9-0.7,9.1-2.2s3.2-3.9,3.2-7.3c0-2.9-1-5.1-2.9-6.6c-1.9-1.5-4.5-2.2-8-2.2h-7.5V30.5z"/>
		<path class="st1" d="M160,1.3l22.4,61.3v0.8h-14.5l-5-14.8h-23.1l-4.9,14.8h-14.3v-0.8L143,1.3H160z M143.5,37.6h15.8l-8-23.6
			L143.5,37.6L143.5,37.6z"/>
		<path class="st1" d="M187,57.3l6.1-9.5c6,3.8,11.8,5.6,17.5,5.6c3.7,0,6.5-0.6,8.6-1.7c2.1-1.1,3.1-2.9,3.1-5.2
			c0-1.4-0.3-2.6-1-3.5c-0.7-0.9-1.9-1.8-3.6-2.7c-1.7-0.9-4.2-2-7.6-3.3l-2.2-0.9c-4.1-1.6-7.4-3.1-9.9-4.6c-2.5-1.5-4.5-3.4-6-5.6
			c-1.5-2.3-2.2-5.2-2.2-8.7c0-3.9,1.1-7.1,3.4-9.7c2.2-2.6,5.1-4.5,8.7-5.7c3.5-1.2,7.3-1.8,11.3-1.8c3.6,0,7.3,0.6,11.1,1.8
			C228,3,231.7,4.8,235.1,7l-6.2,9.4c-3.1-1.9-5.8-3.2-8.1-4c-2.4-0.8-4.9-1.2-7.6-1.2c-3.1,0-5.4,0.5-6.9,1.5
			c-1.6,1-2.4,2.4-2.4,4.1c0,1.1,0.3,2,1,2.9c0.6,0.9,1.8,1.7,3.4,2.6c1.7,0.9,4.1,1.9,7.2,3l2.1,0.8c4.1,1.5,7.4,3,9.9,4.3
			c2.5,1.3,4.7,3.2,6.4,5.7c1.7,2.5,2.6,5.7,2.6,9.7c0,4.1-1.1,7.6-3.3,10.5c-2.2,2.8-5.2,5-8.9,6.4c-3.7,1.4-8,2.1-12.7,2.1
			C201.9,64.8,193.7,62.3,187,57.3L187,57.3z"/>
		<path class="st1" d="M262.1,51.7h28.7v11.7h-42v-62h13.3V51.7z"/>
		<path class="st1" d="M309.6,60.6c-4.6-2.7-8.2-6.6-10.5-11.4c-2.4-4.9-3.6-10.6-3.6-17c0-7.2,1.4-13.1,4.3-17.9
			c2.9-4.8,6.7-8.4,11.5-10.7c4.8-2.3,10.1-3.5,15.9-3.5c6.7,0,12.3,1.4,17,4.1c4.7,2.7,8.2,6.6,10.5,11.4c2.4,4.9,3.5,10.6,3.5,17
			c0,7.2-1.4,13.1-4.3,17.9c-2.9,4.8-6.7,8.4-11.4,10.7c-4.8,2.3-10.1,3.5-15.9,3.5C319.9,64.7,314.2,63.3,309.6,60.6z M336.2,51.1
			c2.7-1.7,4.7-4.1,6-7.3c1.3-3.2,2-6.9,2-11.1c0-6.8-1.4-12-4.3-15.8c-2.9-3.8-7.1-5.7-12.6-5.7c-5.5,0-10.2,1.9-13.2,5.6
			c-3,3.7-4.5,8.9-4.5,15.4c0,6.5,1.4,12,4.3,15.8c2.9,3.8,7.1,5.7,12.7,5.7C330.4,53.6,333.6,52.8,336.2,51.1L336.2,51.1z"/>
		<path class="st1" d="M375,56.1c-4.8-5.8-7.3-13.5-7.3-23.2c0-7.8,1.3-14.2,4-19.1c2.7-4.9,6.3-8.4,10.7-10.5
			C387,1.1,392,0,397.5,0c3.9,0,7.5,0.5,10.8,1.4c3.3,0.9,6.5,2.3,9.8,4.3L413,15.7c-4.6-2.9-9.5-4.4-14.9-4.4
			c-10.9,0-16.4,6.9-16.4,20.8c0,6.9,1.5,12.1,4.5,15.7c3,3.6,7.3,5.4,12.9,5.4c2.8,0,5.3-0.4,7.5-1.1c2.1-0.7,4.4-1.8,6.7-3.1
			l5.3,9.6c-3.5,2-6.8,3.6-10.2,4.7c-3.3,1.1-6.8,1.6-10.5,1.6C387.5,64.7,379.8,61.8,375,56.1L375,56.1z"/>
		<path class="st2" d="M420.7,83.3H1.3l0,93.4h419.4L420.7,83.3z"/>
		<path class="st3" d="M48.9,159.3c-4.7-2.7-8.2-6.6-10.5-11.4c-2.4-4.9-3.6-10.6-3.6-17c0-7.2,1.4-13.1,4.3-17.9
			c2.9-4.8,6.7-8.4,11.5-10.7c4.8-2.3,10.1-3.5,15.9-3.5c6.7,0,12.3,1.4,17,4.1c4.7,2.7,8.2,6.6,10.5,11.4c2.4,4.9,3.5,10.6,3.5,17
			c0,7.2-1.4,13.1-4.3,17.9s-6.7,8.4-11.4,10.7c-4.8,2.3-10.1,3.5-15.9,3.5C59.1,163.4,53.5,162,48.9,159.3z M75.5,149.8
			c2.7-1.7,4.7-4.1,6-7.3c1.3-3.2,2-6.9,2-11.1c0-6.8-1.4-12-4.3-15.8c-2.9-3.8-7.1-5.7-12.6-5.7c-5.5,0-10.2,1.9-13.2,5.6
			c-3,3.7-4.5,8.9-4.5,15.4c0,6.5,1.4,12,4.3,15.8c2.9,3.8,7.1,5.7,12.7,5.7C69.6,152.3,72.8,151.5,75.5,149.8L75.5,149.8z"/>
		<path class="st3" d="M159.7,161.3v0.8h-15.3l-15.7-22.6h-5.2v22.6h-13.3v-62h20.9c5.5,0,10.1,0.9,13.8,2.5c3.7,1.7,6.4,4,8.2,6.9
			c1.8,2.9,2.7,6.2,2.7,9.9c0,4.3-1.1,8.1-3.3,11.2c-2.2,3.2-5.4,5.5-9.6,7L159.7,161.3L159.7,161.3z M123.6,129.3h6
			c3.9,0,6.9-0.7,9.1-2.2c2.1-1.5,3.2-3.9,3.2-7.3c0-2.9-1-5.1-2.9-6.6c-1.9-1.5-4.5-2.2-8-2.2h-7.5V129.3z"/>
		<path class="st3" d="M164.1,156l6.1-9.5c6,3.8,11.8,5.6,17.5,5.6c3.7,0,6.5-0.6,8.6-1.7c2.1-1.1,3.1-2.9,3.1-5.2
			c0-1.4-0.3-2.6-1-3.5c-0.7-0.9-1.9-1.8-3.6-2.7c-1.7-0.9-4.2-2-7.6-3.3l-2.2-0.9c-4.1-1.6-7.4-3.1-9.9-4.6c-2.5-1.5-4.5-3.3-6-5.6
			c-1.5-2.3-2.2-5.2-2.2-8.7c0-3.9,1.1-7.1,3.4-9.7c2.2-2.6,5.1-4.5,8.7-5.7c3.5-1.2,7.3-1.8,11.3-1.8c3.6,0,7.3,0.6,11.1,1.8
			c3.8,1.2,7.5,2.9,10.9,5.2l-6.2,9.4c-3.1-1.9-5.8-3.2-8.1-4c-2.4-0.8-4.9-1.2-7.6-1.2c-3,0-5.4,0.5-6.9,1.5
			c-1.6,1-2.4,2.4-2.4,4.1c0,1.1,0.3,2,1,2.9c0.6,0.9,1.8,1.7,3.4,2.6s4.1,1.9,7.2,3l2.1,0.8c4.1,1.5,7.4,3,9.9,4.3
			c2.5,1.3,4.6,3.2,6.4,5.7c1.7,2.5,2.6,5.7,2.6,9.7c0,4.1-1.1,7.6-3.3,10.5c-2.2,2.8-5.2,5-8.9,6.4c-3.7,1.4-8,2.1-12.7,2.1
			C179,163.5,170.8,161,164.1,156L164.1,156z"/>
		<path class="st3" d="M226.3,162.1v-62h13.3v62H226.3z"/>
		<path class="st3" d="M311.1,100.1v62h-14.8l-19.6-28.9c-1.7-2.6-3.1-4.8-4.2-6.6c-1.1-1.9-2.3-4-3.4-6.4v41.9h-13.3v-62h14.6
			l21.3,31.8c0.3,0.4,0.8,1.2,1.7,2.6c0.9,1.4,1.7,2.7,2.5,3.9c0.7,1.2,1.4,2.4,1.9,3.5v-41.8L311.1,100.1L311.1,100.1z"/>
		<path class="st3" d="M338,159.3c-4.6-2.7-8.2-6.6-10.5-11.4c-2.4-4.9-3.6-10.6-3.6-17c0-7.2,1.4-13.1,4.3-17.9
			c2.9-4.8,6.7-8.4,11.5-10.7c4.8-2.3,10.1-3.5,15.9-3.5c6.7,0,12.3,1.4,17,4.1c4.7,2.7,8.2,6.6,10.5,11.4c2.4,4.9,3.5,10.6,3.5,17
			c0,7.2-1.4,13.1-4.3,17.9c-2.9,4.8-6.7,8.4-11.4,10.7c-4.8,2.3-10.1,3.5-15.9,3.5C348.3,163.4,342.6,162,338,159.3z M364.6,149.8
			c2.7-1.7,4.7-4.1,6-7.3c1.3-3.2,2-6.9,2-11.1c0-6.8-1.4-12-4.3-15.8c-2.9-3.8-7.1-5.7-12.6-5.7c-5.5,0-10.2,1.9-13.2,5.6
			c-3,3.7-4.5,8.9-4.5,15.4c0,6.5,1.4,12,4.3,15.8c2.9,3.8,7.1,5.7,12.7,5.7C358.7,152.3,361.9,151.5,364.6,149.8L364.6,149.8z"/>
	</g>
</g>
<path class="st4" d="M311.6,100.6"/>
<rect x="310.6" y="98.2" class="st2" width="1.4" height="1.4"/>
<rect x="310" y="99.6" class="st5" width="1.6" height="0.5"/>
<rect x="311.6" y="99.8" class="st2" width="0.7" height="0.9"/>
</svg>
